<?xml version="1.0" encoding="UTF-8"?>
<svg width="2248px" height="1749px" viewBox="0 0 2248 1749" version="1.1" xmlns="http://www.w3.org/2000/svg" xmlns:xlink="http://www.w3.org/1999/xlink">
    <!-- Generator: Sketch 52.4 (67378) - http://www.bohemiancoding.com/sketch -->
    <title>logo-2018</title>
    <desc>Created with Sketch.</desc>
    <defs>
        <path d="M1074.41017,9.45111819 L1964.95853,361.678096 C2016.24139,381.961335 2049.92979,431.513373 2049.92979,486.661728 L2049.92979,1070.27407 C2049.92979,1125.42243 2016.24139,1174.97446 1964.95853,1195.2577 L1074.41017,1547.48468 C1042.65203,1560.04557 1007.3032,1560.04572 975.544944,1547.4851 L84.9723228,1195.25729 C33.6889065,1174.97433 6.75377677e-15,1125.42201 0,1070.27323 L-2.84217094e-14,486.662564 C-3.51754862e-14,431.513791 33.6889065,381.961467 84.9723228,361.678511 L975.544944,9.45069766 C1007.3032,-3.10991812 1042.65203,-3.10976777 1074.41017,9.45111819 Z" id="path-1"></path>
        <filter x="-24.7%" y="-29.9%" width="149.4%" height="165.0%" filterUnits="objectBoundingBox" id="filter-2">
            <feOffset dx="0" dy="40" in="SourceAlpha" result="shadowOffsetOuter1"></feOffset>
            <feGaussianBlur stdDeviation="162" in="shadowOffsetOuter1" result="shadowBlurOuter1"></feGaussianBlur>
            <feColorMatrix values="0 0 0 0 0   0 0 0 0 0   0 0 0 0 0  0 0 0 0.2 0" type="matrix" in="shadowBlurOuter1"></feColorMatrix>
        </filter>
        <linearGradient x1="3.45636838%" y1="50%" x2="96.4025204%" y2="50%" id="linearGradient-3">
            <stop stop-color="#7E19DC" offset="0%"></stop>
            <stop stop-color="#E05E60" offset="100%"></stop>
        </linearGradient>
        <path d="M296.645867,758.711135 C293.967183,758.711135 291.775565,757.858447 290.070948,756.153046 C288.366331,754.447644 287.514036,752.255019 287.514036,749.575102 L287.514036,512.403695 C287.514036,509.723779 288.366331,507.470247 290.070948,505.643031 C291.775565,503.815815 293.967183,502.902221 296.645867,502.902221 L346.688301,502.902221 C349.366984,502.902221 351.61948,503.815815 353.445855,505.643031 C355.272231,507.470247 356.185405,509.723779 356.185405,512.403695 L356.185405,599.013284 L442.389889,599.013284 L442.389889,512.403695 C442.389889,509.723779 443.303063,507.470247 445.129439,505.643031 C446.955814,503.815815 449.20831,502.902221 451.886993,502.902221 L501.564154,502.902221 C504.242838,502.902221 506.495334,503.815815 508.321709,505.643031 C510.148084,507.470247 511.061258,509.723779 511.061258,512.403695 L511.061258,749.575102 C511.061258,752.255019 510.148084,754.447644 508.321709,756.153046 C506.495334,757.858447 504.242838,758.711135 501.564154,758.711135 L451.886993,758.711135 C449.20831,758.711135 446.955814,757.858447 445.129439,756.153046 C443.303063,754.447644 442.389889,752.255019 442.389889,749.575102 L442.389889,660.041982 L356.185405,660.041982 L356.185405,749.575102 C356.185405,752.255019 355.272231,754.447644 353.445855,756.153046 C351.61948,757.858447 349.366984,758.711135 346.688301,758.711135 L296.645867,758.711135 Z M546.492762,758.711135 C544.544629,758.711135 542.779159,757.919353 541.1963,756.335766 C539.613442,754.752179 538.822024,752.985897 538.822024,751.036867 C538.822024,749.575095 538.943781,748.478782 539.187298,747.747896 L624.295962,513.500019 C626.731129,506.434785 631.601391,502.902221 638.906892,502.902221 L695.889517,502.902221 C703.195019,502.902221 708.06528,506.434785 710.500447,513.500019 L795.609112,747.747896 C795.852628,748.478782 795.974385,749.575095 795.974385,751.036867 C795.974385,752.985897 795.182967,754.752179 793.600109,756.335766 C792.01725,757.919353 790.25178,758.711135 788.303647,758.711135 L740.818126,758.711135 C734.973725,758.711135 730.834003,756.031259 728.398836,750.671426 L715.248999,715.22362 L619.54741,715.22362 L606.397574,750.671426 C603.962407,756.031259 599.822685,758.711135 593.978284,758.711135 L546.492762,758.711135 Z M634.888886,660.407424 L699.907523,660.407424 L667.398205,567.219891 L634.888886,660.407424 Z M924.185292,762.365548 C889.362402,762.365548 862.028061,753.960482 842.18145,737.150098 C822.334838,720.339714 811.802898,695.733579 810.585314,663.330954 C810.341798,656.752978 810.220041,646.033473 810.220041,631.172119 C810.220041,616.067137 810.341798,605.104007 810.585314,598.282402 C811.802898,566.610664 822.456594,542.187247 842.546723,525.01142 C862.636851,507.835593 889.849436,499.247808 924.185292,499.247808 C945.858279,499.247808 965.278445,502.780372 982.446373,509.845606 C999.614302,516.91084 1013.19015,527.143094 1023.17434,540.542676 C1033.15852,553.942257 1038.39406,569.777889 1038.88109,588.050045 C1038.88109,590.242704 1038.08967,592.069892 1036.50681,593.531665 C1034.92395,594.993437 1033.03673,595.724313 1030.84508,595.724313 L978.976278,595.724313 C975.567044,595.724313 973.071035,595.054344 971.488176,593.714386 C969.905318,592.374427 968.505118,589.87727 967.287534,586.222839 C963.8783,574.28503 958.703648,565.94087 951.763421,561.190109 C944.823195,556.439349 935.630577,554.064004 924.185292,554.064004 C896.667904,554.064004 882.42239,569.412385 881.448323,600.109608 C881.204806,606.687585 881.08305,616.798026 881.08305,630.441237 C881.08305,644.084447 881.204806,654.438514 881.448323,661.503748 C882.42239,692.200971 896.667904,707.549352 924.185292,707.549352 C935.38706,707.549352 944.579678,705.113101 951.763421,700.240526 C958.947164,695.367951 964.121817,687.084697 967.287534,675.390517 C968.261601,671.736086 969.600923,669.238929 971.30554,667.89897 C973.010157,666.559012 975.567044,665.889043 978.976278,665.889043 L1030.84508,665.889043 C1033.03673,665.889043 1034.92395,666.619919 1036.50681,668.081691 C1038.08967,669.543464 1038.88109,671.370652 1038.88109,673.563311 C1038.39406,691.835467 1033.15852,707.671099 1023.17434,721.07068 C1013.19015,734.470262 999.614302,744.702516 982.446373,751.76775 C965.278445,758.832984 945.858279,762.365548 924.185292,762.365548 Z M1085.27079,758.711135 C1082.83562,758.711135 1080.70488,757.797541 1078.87851,755.970325 C1077.05213,754.143109 1076.13896,752.01139 1076.13896,749.575102 L1076.13896,512.403695 C1076.13896,509.723779 1076.99126,507.470247 1078.69587,505.643031 C1080.40049,503.815815 1082.59211,502.902221 1085.27079,502.902221 L1134.2174,502.902221 C1136.89609,502.902221 1139.08771,503.815815 1140.79232,505.643031 C1142.49694,507.470247 1143.34924,509.723779 1143.34924,512.403695 L1143.34924,592.0699 L1208.0026,510.211047 C1210.68128,505.338472 1215.42979,502.902221 1222.24826,502.902221 L1278.13506,502.902221 C1280.08319,502.902221 1281.84866,503.694003 1283.43152,505.27759 C1285.01438,506.861177 1285.8058,508.627459 1285.8058,510.576489 C1285.8058,512.525519 1285.31877,513.987269 1284.34471,514.961784 L1199.23604,625.325058 L1291.2849,746.651572 C1292.25896,747.626087 1292.74599,749.087837 1292.74599,751.036867 C1292.74599,752.985897 1291.95457,754.752179 1290.37171,756.335766 C1288.78886,757.919353 1286.90163,758.711135 1284.70998,758.711135 L1227.36208,758.711135 C1223.46581,758.711135 1220.30014,757.919353 1217.86498,756.335766 C1215.42981,754.752179 1213.72522,753.10771 1212.75115,751.402309 L1143.34924,662.23463 L1143.34924,749.575102 C1143.34924,752.01139 1142.49694,754.143109 1140.79232,755.970325 C1139.08771,757.797541 1136.89609,758.711135 1134.2174,758.711135 L1085.27079,758.711135 Z M1329.27331,758.711135 C1326.83815,758.711135 1324.70741,757.797541 1322.88103,755.970325 C1321.05466,754.143109 1320.14148,752.01139 1320.14148,749.575102 L1320.14148,512.403695 C1320.14148,509.723779 1320.99378,507.470247 1322.6984,505.643031 C1324.40301,503.815815 1326.59463,502.902221 1329.27331,502.902221 L1501.68228,502.902221 C1504.36097,502.902221 1506.61346,503.815815 1508.43984,505.643031 C1510.26621,507.470247 1511.17939,509.723779 1511.17939,512.403695 L1511.17939,548.582384 C1511.17939,551.262301 1510.26621,553.454927 1508.43984,555.160328 C1506.61346,556.865729 1504.36097,557.718417 1501.68228,557.718417 L1386.25594,557.718417 L1386.25594,604.129463 L1493.64627,604.129463 C1496.32496,604.129463 1498.57745,605.043057 1500.40383,606.870273 C1502.2302,608.697488 1503.14338,610.95102 1503.14338,613.630937 L1503.14338,646.886095 C1503.14338,649.566012 1502.2302,651.819544 1500.40383,653.64676 C1498.57745,655.473975 1496.32496,656.387569 1493.64627,656.387569 L1386.25594,656.387569 L1386.25594,703.894939 L1504.60447,703.894939 C1507.28315,703.894939 1509.53565,704.808533 1511.36202,706.635749 C1513.1884,708.462965 1514.10157,710.716497 1514.10157,713.396413 L1514.10157,749.575102 C1514.10157,752.255019 1513.1884,754.447644 1511.36202,756.153046 C1509.53565,757.858447 1507.28315,758.711135 1504.60447,758.711135 L1329.27331,758.711135 Z M1563.77873,758.711135 C1561.34357,758.711135 1559.21283,757.797541 1557.38645,755.970325 C1555.56008,754.143109 1554.6469,752.01139 1554.6469,749.575102 L1554.6469,512.403695 C1554.6469,509.723779 1555.4992,507.470247 1557.20382,505.643031 C1558.90843,503.815815 1561.10005,502.902221 1563.77873,502.902221 L1664.22887,502.902221 C1696.37308,502.902221 1721.5158,510.210974 1739.6578,524.828699 C1757.79979,539.446425 1766.87065,560.032746 1766.87065,586.58828 C1766.87065,603.642293 1762.91357,618.137986 1754.99927,630.075795 C1747.08498,642.013604 1736.18777,651.271358 1722.30732,657.849335 L1771.61921,747.017013 C1772.34976,748.478786 1772.71503,749.818724 1772.71503,751.036867 C1772.71503,752.985897 1771.98449,754.752179 1770.52339,756.335766 C1769.06229,757.919353 1767.23594,758.711135 1765.04429,758.711135 L1713.54076,758.711135 C1706.47878,758.711135 1701.48676,755.422196 1698.56456,748.84422 L1658.3845,669.543456 L1623.31827,669.543456 L1623.31827,749.575102 C1623.31827,752.255019 1622.4051,754.447644 1620.57872,756.153046 C1618.75235,757.858447 1616.49985,758.711135 1613.82117,758.711135 L1563.77873,758.711135 Z M1663.8636,615.823584 C1674.33482,615.823584 1682.30987,613.204615 1687.789,607.966596 C1693.26812,602.728578 1696.00765,595.480731 1696.00765,586.222839 C1696.00765,576.964946 1693.26812,569.534381 1687.789,563.930919 C1682.30987,558.327458 1674.33482,555.525769 1663.8636,555.525769 L1623.31827,555.525769 L1623.31827,615.823584 L1663.8636,615.823584 Z M619.364774,1070.48273 C584.541884,1070.48273 557.207543,1062.07766 537.360931,1045.26728 C517.51432,1028.45689 506.98238,1003.85076 505.764796,971.448133 C505.52128,964.870157 505.399523,954.150652 505.399523,939.289298 C505.399523,924.184315 505.52128,913.221186 505.764796,906.399581 C506.98238,874.727843 517.636076,850.304426 537.726205,833.128599 C557.816333,815.952772 585.028917,807.364987 619.364774,807.364987 C641.037761,807.364987 660.457927,810.897551 677.625855,817.962785 C694.793783,825.028019 708.369636,835.260273 718.353821,848.659855 C728.338007,862.059436 733.573537,877.895068 734.060571,896.167224 C734.060571,898.359883 733.269153,900.187071 731.686295,901.648844 C730.103436,903.110616 728.21621,903.841492 726.024559,903.841492 L674.15576,903.841492 C670.746526,903.841492 668.250517,903.171523 666.667658,901.831564 C665.0848,900.491606 663.684599,897.994449 662.467016,894.340018 C659.057782,882.402209 653.883129,874.058049 646.942903,869.307288 C640.002677,864.556528 630.810059,862.181183 619.364774,862.181183 C591.847385,862.181183 577.601871,877.529564 576.627805,908.226787 C576.384288,914.804764 576.262531,924.915205 576.262531,938.558416 C576.262531,952.201626 576.384288,962.555693 576.627805,969.620927 C577.601871,1000.31815 591.847385,1015.66653 619.364774,1015.66653 C630.566542,1015.66653 639.75916,1013.23028 646.942903,1008.3577 C654.126646,1003.48513 659.301299,995.201876 662.467016,983.507696 C663.441083,979.853265 664.780405,977.356108 666.485021,976.016149 C668.189638,974.676191 670.746526,974.006222 674.15576,974.006222 L726.024559,974.006222 C728.21621,974.006222 730.103436,974.737098 731.686295,976.19887 C733.269153,977.660643 734.060571,979.487831 734.060571,981.68049 C733.573537,999.952646 728.338007,1015.78828 718.353821,1029.18786 C708.369636,1042.58744 694.793783,1052.8197 677.625855,1059.88493 C660.457927,1066.95016 641.037761,1070.48273 619.364774,1070.48273 Z M753.785326,1066.82831 C751.837192,1066.82831 750.071722,1066.03653 748.488864,1064.45295 C746.906005,1062.86936 746.114588,1061.10308 746.114588,1059.15405 C746.114588,1057.69227 746.236344,1056.59596 746.479861,1055.86507 L831.588526,821.617198 C834.023693,814.551964 838.893954,811.0194 846.199455,811.0194 L903.182081,811.0194 C910.487582,811.0194 915.357843,814.551964 917.79301,821.617198 L1002.90167,1055.86507 C1003.14519,1056.59596 1003.26695,1057.69227 1003.26695,1059.15405 C1003.26695,1061.10308 1002.47553,1062.86936 1000.89267,1064.45295 C999.309813,1066.03653 997.544344,1066.82831 995.59621,1066.82831 L948.110689,1066.82831 C942.266288,1066.82831 938.126566,1064.14844 935.691399,1058.78861 L922.541562,1023.3408 L826.839974,1023.3408 L813.690137,1058.78861 C811.25497,1064.14844 807.115248,1066.82831 801.270847,1066.82831 L753.785326,1066.82831 Z M842.18145,968.524603 L907.200086,968.524603 L874.690768,875.33707 L842.18145,968.524603 Z M1040.52482,1066.82831 C1037.84613,1066.82831 1035.59364,1065.97563 1033.76726,1064.27022 C1031.94089,1062.56482 1031.02771,1060.3722 1031.02771,1057.69228 L1031.02771,820.520874 C1031.02771,817.840958 1031.94089,815.587426 1033.76726,813.76021 C1035.59364,811.932994 1037.84613,811.0194 1040.52482,811.0194 L1081.80069,811.0194 C1087.88861,811.0194 1092.27185,813.699276 1094.95053,819.059109 L1157.77753,931.615031 L1220.9698,819.059109 C1223.64848,813.699276 1228.03172,811.0194 1234.11964,811.0194 L1275.39551,811.0194 C1278.0742,811.0194 1280.32669,811.932994 1282.15307,813.76021 C1283.97944,815.587426 1284.89262,817.840958 1284.89262,820.520874 L1284.89262,1057.69228 C1284.89262,1060.3722 1283.97944,1062.56482 1282.15307,1064.27022 C1280.32669,1065.97563 1278.0742,1066.82831 1275.39551,1066.82831 L1229.00581,1066.82831 C1226.57064,1066.82831 1224.4399,1065.91472 1222.61353,1064.0875 C1220.78715,1062.26029 1219.87398,1060.12857 1219.87398,1057.69228 L1219.87398,924.671646 L1180.42447,997.029024 C1177.25875,1002.63249 1172.99727,1005.43417 1167.63991,1005.43417 L1147.91515,1005.43417 C1143.04482,1005.43417 1138.78334,1002.63249 1135.13059,997.029024 L1096.04635,924.671646 L1096.04635,1057.69228 C1096.04635,1060.3722 1095.13318,1062.56482 1093.3068,1064.27022 C1091.48043,1065.97563 1089.22793,1066.82831 1086.54925,1066.82831 L1040.52482,1066.82831 Z M1343.70161,1066.82831 C1341.26644,1066.82831 1339.1357,1065.91472 1337.30933,1064.0875 C1335.48295,1062.26029 1334.56978,1060.12857 1334.56978,1057.69228 L1334.56978,820.520874 C1334.56978,817.840958 1335.42207,815.587426 1337.12669,813.76021 C1338.83131,811.932994 1341.02292,811.0194 1343.70161,811.0194 L1447.07393,811.0194 C1478.73111,811.0194 1503.56944,818.206341 1521.58967,832.580437 C1539.60991,846.954534 1548.61989,868.028105 1548.61989,895.801783 C1548.61989,923.575461 1539.60991,944.344501 1521.58967,958.109525 C1503.56944,971.87455 1478.73111,978.756959 1447.07393,978.756959 L1405.43278,978.756959 L1405.43278,1057.69228 C1405.43278,1060.12857 1404.58049,1062.26029 1402.87587,1064.0875 C1401.17125,1065.91472 1398.97964,1066.82831 1396.30095,1066.82831 L1343.70161,1066.82831 Z M1445.24757,926.498853 C1455.23175,926.498853 1463.08505,923.879883 1468.80769,918.641865 C1474.53033,913.403846 1477.39161,905.668749 1477.39161,895.436342 C1477.39161,885.93482 1474.77385,878.26063 1469.53824,872.413539 C1464.30263,866.566449 1456.20582,863.642948 1445.24757,863.642948 L1404.33696,863.642948 L1404.33696,926.498853 L1445.24757,926.498853 Z" id="path-4"></path>
        <path d="M404.514528,44.6724614 L371.2632,127.769286 L354.81072,127.769286 L321.03984,44.6724614 L339.397344,44.6724614 L363.123552,108.765854 L387.022944,44.6724614 L404.514528,44.6724614 Z M410.04381,105.483443 C410.04381,90.6262149 420.954402,82.3338082 435.328674,80.2607066 L457.842594,76.9782956 C462.86493,76.2872617 464.250402,73.6958846 464.250402,70.7589906 C464.250402,62.6393425 458.881698,55.9017621 446.239266,55.9017621 C434.809122,55.9017621 428.401314,62.9848594 427.36221,72.6593338 C417.112944,69.2014756 411.988311,67.4725466 411.988311,67.4725466 C414.461022,52.4192934 428.47667,42.0810844 445.892898,42.0810844 C470.831394,42.0810844 480.529698,56.247279 480.529698,72.4865753 L480.529698,114.121367 C480.529698,121.377223 481.222434,125.696185 481.568802,127.769286 L465.635874,127.769286 C465.289506,125.696185 464.769954,122.586532 464.769954,116.539986 C461.13309,122.413774 452.820258,130.360663 437.926434,130.360663 C420.954402,130.360663 410.04381,118.613087 410.04381,105.483443 Z M440.177826,116.712744 C453.512994,116.712744 464.250402,108.521113 464.250402,90.3814737 L464.250402,88.3803547 L438.792354,92.1810411 C431.864994,93.2175919 426.669474,97.1910368 426.669474,104.619651 C426.669474,110.838956 431.864994,116.712744 440.177826,116.712744 Z M536.801891,57.1110714 C523.639907,57.1110714 511.517027,66.7855458 511.517027,86.1344946 C511.517027,105.137926 523.466723,115.330676 536.975075,115.330676 C551.948686,115.330676 557.811945,105.604958 559.938938,99.0196351 C559.996984,98.8399202 564.869339,100.649006 574.556003,104.446893 C570.572771,116.367227 558.623075,130.360663 536.975075,130.360663 C512.729315,130.360663 494.891363,111.357231 494.891363,86.1344946 C494.891363,60.2207239 513.075683,42.0810844 536.801891,42.0810844 C558.969443,42.0810844 570.399587,55.9017621 573.863267,68.5131305 C563.943828,72.2592684 558.954916,74.0315646 558.896533,73.8300191 C556.606791,65.9256337 550.47984,57.1110714 536.801891,57.1110714 Z M624.602528,56.4200375 C611.440544,56.4200375 599.317664,66.0945119 599.317664,85.4434607 C599.317664,104.446893 611.26736,114.639642 624.775712,114.639642 C639.749322,114.639642 645.612581,104.913924 647.739574,98.3286012 C647.797621,98.1488863 652.669976,99.9579721 662.35664,103.755859 C658.373408,115.676193 646.423712,129.669629 624.775712,129.669629 C600.529952,129.669629 582.692,110.666198 582.692,85.4434607 C582.692,59.52969 600.87632,41.3900505 624.602528,41.3900505 C646.77008,41.3900505 658.200224,55.2107282 661.663904,67.8220966 C651.744464,71.5682345 646.755553,73.3405307 646.697169,73.1389852 C644.407428,65.2345999 638.280477,56.4200375 624.602528,56.4200375 Z M686.234471,77.6693295 L731.781863,77.6693295 C731.435495,65.748995 723.642215,56.4200375 708.921575,56.4200375 C695.240039,56.4200375 686.927207,66.9583043 686.234471,77.6693295 Z M748.234343,104.101376 C743.558375,118.785846 730.223207,130.360663 710.826599,130.360663 C688.485863,130.360663 668.916071,114.121367 668.916071,85.9617361 C668.916071,59.8752069 687.793127,42.0810844 708.748391,42.0810844 C734.379623,42.0810844 748.753895,59.7024484 748.753895,85.6162192 C748.753895,87.6893208 748.580711,89.7624225 748.407527,90.7989733 L685.714919,90.7989733 C686.061287,105.656202 696.798695,116.02171 710.826599,116.02171 C723.974831,116.02171 730.724207,108.983896 733.949312,100.006085 C734.008201,99.8421548 738.769877,101.207252 748.234343,104.101376 Z M811.780264,43.8086691 L811.780264,61.0845162 C809.355688,60.7389993 806.931112,60.5662408 804.67972,60.5662408 C790.998184,60.5662408 781.819432,67.8220966 781.819432,86.1344946 L781.819432,127.769286 L765.540136,127.769286 L765.540136,46.4720288 L781.473064,44.6724614 L781.473064,59.184173 C787.534504,46.4000461 797.925544,43.2903937 806.41156,43.2903937 C808.662952,43.2903937 810.914344,43.6359106 811.780264,43.8086691 Z" id="path-5"></path>
        <path d="M26.309536,127.769286 L3.276064,127.769286 L3.276064,45.3491207 L26.309536,42.7721182 L26.309536,127.769286 Z M0.50512,14.9580043 C0.50512,7.01111464 6.912928,0.61905119 14.706208,0.61905119 C22.672672,0.61905119 28.907296,7.01111464 28.907296,14.9580043 C28.907296,22.5593771 22.672672,28.9514405 14.706208,28.9514405 C6.912928,28.9514405 0.50512,22.5593771 0.50512,14.9580043 Z M67.2754043,78.8786388 L67.2754043,127.769286 L44.2419323,127.769286 L44.2419323,45.367134 L66.5826683,42.7721182 L66.5826683,55.0667189 C71.7781883,46.2560368 81.9960443,40.5262581 91.1747963,40.5262581 C112.303244,40.5262581 122.001548,55.5562451 122.001548,74.2141601 L122.001548,127.769286 L98.9680763,127.769286 L98.9680763,78.1876049 C98.9680763,68.685889 94.2921083,61.2572747 83.2083323,61.2572747 C73.1636603,61.2572747 67.2754043,69.0314059 67.2754043,78.8786388 Z M161.761061,78.878619 L161.761061,127.769266 L138.727589,127.769266 L138.727589,45.3671142 L161.068325,42.7720985 L161.068325,55.0666991 C166.263845,46.256017 176.481701,40.5262383 185.660453,40.5262383 C206.788901,40.5262383 216.487205,55.5562254 216.487205,74.2141403 L216.487205,127.769266 L193.453733,127.769266 L193.453733,78.1875851 C193.453733,68.6858692 188.777765,61.2572549 177.693989,61.2572549 C167.649317,61.2572549 161.761061,69.0313861 161.761061,78.878619 Z M271.475045,109.456888 C282.732005,109.456888 293.123045,101.33724 293.123045,85.2707022 C293.123045,69.2041644 282.732005,61.0845162 271.475045,61.0845162 C260.218085,61.0845162 249.827045,69.2041644 249.827045,85.2707022 C249.827045,101.164482 260.218085,109.456888 271.475045,109.456888 Z M271.475045,40.1807412 C296.933093,40.1807412 316.156517,59.0114146 316.156517,85.2707022 C316.156517,111.357231 296.933093,130.360663 271.475045,130.360663 C246.016997,130.360663 226.793573,111.357231 226.793573,85.2707022 C226.793573,59.0114146 246.016997,40.1807412 271.475045,40.1807412 Z" id="path-6"></path>
        <path d="M926.330888,1376.16962 C924.284529,1376.16962 922.493992,1375.40189 920.959223,1373.86642 C919.424454,1372.33094 918.657081,1370.53958 918.657081,1368.49228 L918.657081,1224.77251 L877.525472,1256.40314 C875.888385,1257.42679 874.353639,1257.93861 872.921188,1257.93861 C870.465557,1257.93861 868.316913,1256.71025 866.47519,1254.25349 L847.444147,1229.686 C846.625603,1228.25289 846.216338,1226.71744 846.216338,1225.0796 C846.216338,1222.21338 847.341818,1219.96138 849.592813,1218.32354 L920.805747,1163.3538 C922.852106,1161.92069 925.205383,1161.20415 927.86565,1161.20415 L968.383354,1161.20415 C970.634349,1161.20415 972.527202,1161.92069 974.061971,1163.3538 C975.596741,1164.78691 976.364114,1166.62945 976.364114,1168.88148 L976.364114,1368.49228 C976.364114,1370.74431 975.596741,1372.58685 974.061971,1374.01996 C972.527202,1375.45307 970.634349,1376.16962 968.383354,1376.16962 L926.330888,1376.16962 Z M1100.37284,1379.24055 C1080.52316,1379.24055 1063.74327,1376.22083 1050.03267,1370.1813 C1036.32206,1364.14176 1026.14158,1356.00386 1019.49091,1345.76736 C1012.84025,1335.53086 1009.51496,1324.06615 1009.51496,1311.37288 C1009.51496,1300.72692 1012.22635,1291.05357 1017.6492,1282.35254 C1023.07205,1273.65152 1030.18304,1266.94671 1038.98238,1262.23792 C1024.45323,1252.82034 1017.18877,1238.69417 1017.18877,1219.85901 C1017.18877,1201.63804 1024.19744,1186.79533 1038.215,1175.33045 C1052.23256,1163.86557 1072.95163,1158.13321 1100.37284,1158.13321 C1127.58942,1158.13321 1148.10386,1163.81438 1161.91678,1175.1769 C1175.7297,1186.53942 1182.63606,1201.33094 1182.63606,1219.55192 C1182.63606,1238.18235 1175.67854,1252.41088 1161.7633,1262.23792 C1170.76728,1266.53725 1177.98059,1273.08851 1183.40344,1281.8919 C1188.82629,1290.6953 1191.53768,1300.62455 1191.53768,1311.67998 C1191.53768,1324.37324 1188.16124,1335.78677 1181.40825,1345.92091 C1174.65527,1356.05504 1164.42363,1364.14176 1150.71302,1370.1813 C1137.00242,1376.22083 1120.22252,1379.24055 1100.37284,1379.24055 Z M1100.37284,1246.26905 C1108.96755,1246.06432 1116.02738,1243.76115 1121.55255,1239.35945 C1127.07772,1234.95775 1129.84026,1229.37894 1129.84026,1222.62285 C1129.84026,1215.66203 1127.07772,1209.98086 1121.55255,1205.57916 C1116.02738,1201.17747 1108.96755,1198.97665 1100.37284,1198.97665 C1091.5735,1198.97665 1084.46251,1201.17747 1079.03966,1205.57916 C1073.61681,1209.98086 1070.90542,1215.66203 1070.90542,1222.62285 C1070.90542,1229.58367 1073.61681,1235.26485 1079.03966,1239.66654 C1084.46251,1244.06824 1091.5735,1246.26905 1100.37284,1246.26905 Z M1100.37284,1338.70421 C1109.99073,1338.70421 1117.92025,1336.24748 1124.16165,1331.33396 C1130.40304,1326.42044 1133.52369,1319.86918 1133.52369,1311.67998 C1133.52369,1303.49078 1130.40304,1296.93951 1124.16165,1292.02599 C1117.92025,1287.11247 1109.99073,1284.65575 1100.37284,1284.65575 C1090.75496,1284.65575 1082.77428,1287.11247 1076.43056,1292.02599 C1070.08685,1296.93951 1066.91504,1303.49078 1066.91504,1311.67998 C1066.91504,1319.86918 1070.08685,1326.42044 1076.43056,1331.33396 C1082.77428,1336.24748 1090.75496,1338.70421 1100.37284,1338.70421 Z" id="path-7"></path>
        <path d="M1935.63122,809.958048 C1935.63122,809.958048 1935.63122,809.958048 1935.63122,809.958048 C1924.88789,820.466405 1918.8,834.866746 1918.8,849.656285 C1918.8,864.835023 1924.88789,878.846165 1935.63122,889.354522 C1935.63122,889.354522 1935.63122,889.354522 1935.63122,889.354522 C1944.22588,897.916887 1948.88133,908.814442 1948.88133,920.879593 C1948.88133,932.555545 1944.22588,943.842299 1935.63122,952.404663 C1933.48255,954.350655 1933.48255,958.242639 1935.27311,960.57783 C1936.34744,961.745425 1937.77988,962.523822 1939.21233,962.523822 C1940.28666,962.523822 1941.71911,962.134623 1942.79344,960.967028 C1953.53677,950.458671 1959.62466,936.05833 1959.62466,921.268791 C1959.62466,906.090054 1953.53677,892.078911 1942.79344,881.570554 C1942.79344,881.570554 1942.79344,881.570554 1942.79344,881.570554 C1934.19877,873.008189 1929.54333,862.110634 1929.54333,850.045484 C1929.54333,838.369532 1934.19877,827.082778 1942.79344,818.520413 C1942.79344,818.520413 1942.79344,818.520413 1942.79344,818.520413 C1953.53677,808.012056 1959.62466,793.611715 1959.62466,778.822176 C1959.62466,763.643438 1953.53677,749.632296 1942.79344,739.123939 C1942.79344,739.123939 1942.79344,739.123939 1942.79344,739.123939 C1934.19877,730.561574 1929.54333,719.664019 1929.54333,707.598868 C1929.54333,695.922916 1934.19877,684.636163 1942.79344,676.073798 C1942.79344,676.073798 1942.79344,676.073798 1942.79344,676.073798 C1953.53677,665.565441 1959.62466,651.1651 1959.62466,636.375561 C1959.62466,621.196823 1953.53677,607.185681 1942.79344,596.677324 C1940.64477,594.731332 1937.42177,594.731332 1935.27311,597.066522 C1933.48255,599.401713 1933.48255,602.904498 1935.63122,605.239689 C1944.22588,613.802053 1948.88133,624.699609 1948.88133,636.764759 C1948.88133,648.440711 1944.22588,659.727465 1935.63122,668.28983 C1935.63122,668.28983 1935.63122,668.28983 1935.63122,668.28983 C1924.88789,678.798187 1918.8,693.198527 1918.8,707.988067 C1918.8,723.166804 1924.88789,737.177947 1935.63122,747.686304 C1935.63122,747.686304 1935.63122,747.686304 1935.63122,747.686304 C1944.22588,756.248669 1948.88133,767.146224 1948.88133,779.211374 C1948.88133,790.498128 1944.22588,801.395683 1935.63122,809.958048 Z" id="path-8"></path>
        <path d="M115.231218,809.958048 C115.231218,809.958048 115.231218,809.958048 115.231218,809.958048 C104.487887,820.466405 98.4,834.866746 98.4,849.656285 C98.4,864.835023 104.487887,878.846165 115.231218,889.354522 C115.231218,889.354522 115.231218,889.354522 115.231218,889.354522 C123.825882,897.916887 128.481326,908.814442 128.481326,920.879593 C128.481326,932.555545 123.825882,943.842299 115.231218,952.404663 C113.082552,954.350655 113.082552,958.242639 114.873107,960.57783 C115.94744,961.745425 117.379884,962.523822 118.812328,962.523822 C119.886661,962.523822 121.319105,962.134623 122.393438,960.967028 C133.136769,950.458671 139.224656,936.05833 139.224656,921.268791 C139.224656,906.090054 133.136769,892.078911 122.393438,881.570554 C122.393438,881.570554 122.393438,881.570554 122.393438,881.570554 C113.798774,873.008189 109.143331,862.110634 109.143331,850.045484 C109.143331,838.369532 113.798774,827.082778 122.393438,818.520413 C122.393438,818.520413 122.393438,818.520413 122.393438,818.520413 C133.136769,808.012056 139.224656,793.611715 139.224656,778.822176 C139.224656,763.643438 133.136769,749.632296 122.393438,739.123939 C122.393438,739.123939 122.393438,739.123939 122.393438,739.123939 C113.798774,730.561574 109.143331,719.664019 109.143331,707.598868 C109.143331,695.922916 113.798774,684.636163 122.393438,676.073798 C122.393438,676.073798 122.393438,676.073798 122.393438,676.073798 C133.136769,665.565441 139.224656,651.1651 139.224656,636.375561 C139.224656,621.196823 133.136769,607.185681 122.393438,596.677324 C120.244772,594.731332 117.021773,594.731332 114.873107,597.066522 C113.082552,599.401713 113.082552,602.904498 115.231218,605.239689 C123.825882,613.802053 128.481326,624.699609 128.481326,636.764759 C128.481326,648.440711 123.825882,659.727465 115.231218,668.28983 C115.231218,668.28983 115.231218,668.28983 115.231218,668.28983 C104.487887,678.798187 98.4,693.198527 98.4,707.988067 C98.4,723.166804 104.487887,737.177947 115.231218,747.686304 C115.231218,747.686304 115.231218,747.686304 115.231218,747.686304 C123.825882,756.248669 128.481326,767.146224 128.481326,779.211374 C128.481326,790.498128 123.825882,801.395683 115.231218,809.958048 Z" id="path-9"></path>
    </defs>
    <g id="Page-2" stroke="none" stroke-width="1" fill="none" fill-rule="evenodd">
        <g id="Artboard" transform="translate(-225.000000, -228.000000)">
            <g id="logo-2018" transform="translate(324.000000, 284.000000)">
                <g id="Group-7-Copy-2">
                    <g id="Polygon">
                        <use fill="black" fill-opacity="1" filter="url(#filter-2)" xlink:href="#path-1"></use>
                        <use fill="#FFFFFF" fill-rule="evenodd" xlink:href="#path-1"></use>
                    </g>
                    <g id="HACKER-CAMP">
                        <use fill="#353742" xlink:href="#path-4"></use>
                        <use fill="url(#linearGradient-3)" xlink:href="#path-4"></use>
                    </g>
                    <g id="Group" transform="translate(623.200000, 262.736842)">
                        <g id="vaccer">
                            <use fill="#353742" xlink:href="#path-5"></use>
                            <use fill="url(#linearGradient-3)" xlink:href="#path-5"></use>
                        </g>
                        <g id="inno">
                            <use fill="#353742" xlink:href="#path-6"></use>
                            <use fill="url(#linearGradient-3)" xlink:href="#path-6"></use>
                        </g>
                    </g>
                    <g id="18">
                        <use fill="#353742" xlink:href="#path-7"></use>
                        <use fill="url(#linearGradient-3)" xlink:href="#path-7"></use>
                    </g>
                    <g id="Shape">
                        <use fill="#353742" xlink:href="#path-8"></use>
                        <use fill="url(#linearGradient-3)" xlink:href="#path-8"></use>
                    </g>
                    <g id="Shape-Copy" transform="translate(118.812328, 778.893490) scale(-1, 1) translate(-118.812328, -778.893490) ">
                        <use fill="#353742" xlink:href="#path-9"></use>
                        <use fill="url(#linearGradient-3)" xlink:href="#path-9"></use>
                    </g>
                </g>
            </g>
        </g>
    </g>
</svg>