<?xml version="1.0" encoding="UTF-8"?>
<svg width="548px" height="82px" viewBox="0 0 548 82" version="1.1" xmlns="http://www.w3.org/2000/svg" xmlns:xlink="http://www.w3.org/1999/xlink">
    <!-- Generator: Sketch 50.2 (55047) - http://www.bohemiancoding.com/sketch -->
    <title>logo_white</title>
    <desc>Created with Sketch.</desc>
    <defs></defs>
    <g id="Page-1" stroke="none" stroke-width="1" fill="none" fill-rule="evenodd">
        <g id="logo_white" transform="translate(-26.000000, -20.000000)" fill="#FFFFFF">
            <g transform="translate(26.000000, 20.000000)">
                <path d="M322.232,24.824 L303.8,71 L294.68,71 L275.96,24.824 L286.136,24.824 L299.288,60.44 L312.536,24.824 L322.232,24.824 Z M325.297012,58.616 C325.297012,50.36 331.345012,45.752 339.313012,44.6 L351.793012,42.776 C354.577012,42.392 355.345012,40.952 355.345012,39.32 C355.345012,34.808 352.369012,31.064 345.361012,31.064 C339.025012,31.064 335.473012,35 334.897012,40.376 C329.215601,38.4545059 326.374895,37.4937588 326.374895,37.4937588 C327.745578,29.1288301 335.514784,23.384 345.169012,23.384 C358.993012,23.384 364.369012,31.256 364.369012,40.28 L364.369012,63.416 C364.369012,67.448 364.753012,69.848 364.945012,71 L356.113012,71 C355.921012,69.848 355.633012,68.12 355.633012,64.76 C353.617012,68.024 349.009012,72.44 340.753012,72.44 C331.345012,72.44 325.297012,65.912 325.297012,58.616 Z M342.001012,64.856 C349.393012,64.856 355.345012,60.304 355.345012,50.224 L355.345012,49.112 L341.233012,51.224 C337.393012,51.8 334.513012,54.008 334.513012,58.136 C334.513012,61.592 337.393012,64.856 342.001012,64.856 Z M395.562024,31.736 C388.266024,31.736 381.546024,37.112 381.546024,47.864 C381.546024,58.424 388.170024,64.088 395.658024,64.088 C403.958251,64.088 407.208395,58.6835243 408.387438,55.0241322 C408.419614,54.9242665 411.120476,55.9295558 416.490024,58.04 C414.282024,64.664 407.658024,72.44 395.658024,72.44 C382.218024,72.44 372.330024,61.88 372.330024,47.864 C372.330024,33.464 382.410024,23.384 395.562024,23.384 C407.850024,23.384 414.186024,31.064 416.106024,38.072 C410.607443,40.153688 407.841971,41.1385337 407.809608,41.0265371 C406.54035,36.6341562 403.144036,31.736 395.562024,31.736 Z M444.232,31.352 C436.936,31.352 430.216,36.728 430.216,47.48 C430.216,58.04 436.84,63.704 444.328,63.704 C452.628227,63.704 455.878371,58.2995243 457.057414,54.6401322 C457.08959,54.5402665 459.790452,55.5455558 465.16,57.656 C462.952,64.28 456.328,72.056 444.328,72.056 C430.888,72.056 421,61.496 421,47.48 C421,33.08 431.08,23 444.232,23 C456.52,23 462.856,30.68 464.776,37.688 C459.277419,39.769688 456.511947,40.7545337 456.479584,40.6425371 C455.210326,36.2501562 451.814012,31.352 444.232,31.352 Z M478.396048,43.16 L503.644048,43.16 C503.452048,36.536 499.132048,31.352 490.972048,31.352 C483.388048,31.352 478.780048,37.208 478.396048,43.16 Z M512.764048,57.848 C510.172048,66.008 502.780048,72.44 492.028048,72.44 C479.644048,72.44 468.796048,63.416 468.796048,47.768 C468.796048,33.272 479.260048,23.384 490.876048,23.384 C505.084048,23.384 513.052048,33.176 513.052048,47.576 C513.052048,48.728 512.956048,49.88 512.860048,50.456 L478.108048,50.456 C478.300048,58.712 484.252048,64.472 492.028048,64.472 C499.316425,64.472 503.057764,60.5611632 504.845517,55.5722915 C504.87816,55.4811974 507.51767,56.2397669 512.764048,57.848 Z M547.98906,24.344 L547.98906,33.944 C546.64506,33.752 545.30106,33.656 544.05306,33.656 C536.46906,33.656 531.38106,37.688 531.38106,47.864 L531.38106,71 L522.35706,71 L522.35706,25.824 L531.18906,24.824 L531.18906,32.888 C534.54906,25.784 540.30906,24.056 545.01306,24.056 C546.26106,24.056 547.50906,24.248 547.98906,24.344 Z" id="vaccer"></path>
                <path d="M112.584,71 L99.816,71 L99.816,25.2000122 L112.584,23.768 L112.584,71 Z M98.28,8.312 C98.28,3.896 101.832,0.344 106.152,0.344 C110.568,0.344 114.024,3.896 114.024,8.312 C114.024,12.536 110.568,16.088 106.152,16.088 C101.832,16.088 98.28,12.536 98.28,8.312 Z M135.292353,43.832 L135.292353,71 L122.524353,71 L122.524353,25.210022 L134.908353,23.768 L134.908353,30.5999756 C137.788353,25.7039756 143.452353,22.52 148.540353,22.52 C160.252353,22.52 165.628353,30.872 165.628353,41.24 L165.628353,71 L152.860353,71 L152.860353,43.448 C152.860353,38.168 150.268353,34.04 144.124353,34.04 C138.556353,34.04 135.292353,38.36 135.292353,43.832 Z M187.667994,43.831989 L187.667994,70.999989 L174.899994,70.999989 L174.899994,25.210011 L187.283994,23.767989 L187.283994,30.5999646 C190.163994,25.7039646 195.827994,22.519989 200.915994,22.519989 C212.627994,22.519989 218.003994,30.871989 218.003994,41.239989 L218.003994,70.999989 L205.235994,70.999989 L205.235994,43.447989 C205.235994,38.167989 202.643994,34.039989 196.499994,34.039989 C190.931994,34.039989 187.667994,38.359989 187.667994,43.831989 Z M248.485058,60.824 C254.725058,60.824 260.485058,56.312 260.485058,47.384 C260.485058,38.456 254.725058,33.944 248.485058,33.944 C242.245058,33.944 236.485058,38.456 236.485058,47.384 C236.485058,56.216 242.245058,60.824 248.485058,60.824 Z M248.485058,22.328 C262.597058,22.328 273.253058,32.792 273.253058,47.384 C273.253058,61.88 262.597058,72.44 248.485058,72.44 C234.373058,72.44 223.717058,61.88 223.717058,47.384 C223.717058,32.792 234.373058,22.328 248.485058,22.328 Z" id="inno"></path>
                <g id="Icon" transform="translate(0.000000, 6.000000)">
                    <path d="M5.17109835,0.00454926374 L38.99504,0.00454926374 C38.99504,0.00454926374 41.0424941,-0.159224231 45.2193004,1.47851071 L21.0593421,34.6426434 C21.0593421,34.6426434 20.4041568,32.1041542 19.1756844,30.6301927 L15.4083688,25.6351012 L1.48568098,7.12869628 C1.48568098,7.12869628 -0.1522823,5.08152759 0.0115140276,3.03435891 C0.0115140276,3.03435891 0.175310355,0.00454926374 5.17109835,0.00454926374 Z" id="Shape" fill-rule="nonzero" opacity="0.7"></path>
                    <path d="M22.8611017,36.689812 L47.5943472,2.70681192 C47.5943472,2.70681192 49.0685141,3.5256794 49.9693939,4.26266012 C49.9693939,4.26266012 52.2625425,5.98228181 53.4091168,7.865677 L55.9479599,11.3868071 L58.1592103,14.4985035 L60.9437479,18.3471807 L64.4653689,23.3422722 L69.5430551,30.4664193 C69.5430551,30.4664193 70.6896294,32.0222674 71.0991202,33.1686819 C71.0991202,33.1686819 71.8362037,34.9701904 72,36.7716988 L22.8611017,36.7716988 L22.8611017,36.689812 Z" id="Shape" opacity="0.8"></path>
                    <path d="M22.8611017,39.310188 L47.5943472,73.2931881 C47.5943472,73.2931881 49.0685141,72.4743206 49.9693939,71.7373399 C49.9693939,71.7373399 52.2625425,70.0177182 53.4091168,68.134323 L55.9479599,64.6131929 L58.1592103,61.5014965 L60.9437479,57.6528193 L64.4653689,52.6577278 L69.5430551,45.5335807 C69.5430551,45.5335807 70.6896294,43.9777326 71.0991202,42.8313181 C71.0991202,42.8313181 71.8362037,41.0298096 72,39.2283012 L22.8611017,39.2283012 L22.8611017,39.310188 Z" id="Shape"></path>
                    <path d="M5.25299651,75.9954507 L39.0769382,75.9954507 C39.0769382,75.9954507 41.1243923,76.1592242 45.3011986,74.5214893 L21.2231384,41.2754699 C21.2231384,41.2754699 20.5679531,43.8139591 19.3394807,45.2879205 L15.5721651,50.2830121 L1.6494773,68.789417 C1.6494773,68.789417 0.0115140276,70.8365857 0.175310355,72.8837543 C0.175310355,72.8837543 0.257208519,75.9954507 5.25299651,75.9954507 Z" id="Shape"></path>
                </g>
            </g>
        </g>
    </g>
</svg>